<svg width="94" height="27" viewBox="0 0 94 27" fill="none" xmlns="http://www.w3.org/2000/svg">
<path d="M11.0171 0.95772C11.0171 0.428785 10.5883 0 10.0594 0H2.87326C1.28646 0 0.000102997 1.28636 0.000102997 2.87316V10.0593C0.000102997 10.5882 0.428889 11.017 0.957824 11.017H6.22849C8.87316 11.017 11.0171 8.87305 11.0171 6.22838V0.95772Z" fill="#3D5466"/>
<circle cx="18.2351" cy="5.50849" r="5.50849" fill="#6AA7CF"/>
<path d="M0 13.6842C0 13.1552 0.428786 12.7264 0.957721 12.7264H6.22838C8.87306 12.7264 11.017 14.8704 11.017 17.515V22.7857C11.017 23.3146 10.5882 23.7434 10.0593 23.7434H4.7886C2.14393 23.7434 0 21.5995 0 18.9548V13.6842Z" fill="#6BA7CC"/>
<path d="M12.7263 13.6842C12.7263 13.1552 13.1551 12.7264 13.684 12.7264H20.3913C22.2426 12.7264 23.7433 14.2272 23.7433 16.0785V20.8703C23.7433 22.4571 22.4569 23.7434 20.8701 23.7434H14.1629C13.3695 23.7434 12.7263 23.1002 12.7263 22.3068V13.6842Z" fill="#67859B"/>
<mask id="path-5-outside-1_967_12273" maskUnits="userSpaceOnUse" x="30.822" y="0.871704" width="61" height="26" fill="black">
<rect fill="white" x="30.822" y="0.871704" width="61" height="26"/>
<path d="M33.8887 7.37517V9.50742C34.4016 8.76003 35.0537 8.15919 35.8451 7.7049C36.6364 7.25061 37.5816 7.02346 38.6807 7.02346C39.7505 7.02346 40.7031 7.22863 41.5384 7.63896C42.3737 8.04928 43.0698 8.59883 43.6267 9.2876C44.1835 9.97636 44.6085 10.7824 44.9016 11.7056C45.1947 12.6142 45.3412 13.5814 45.3412 14.6072C45.3412 15.633 45.1947 16.6076 44.9016 17.5308C44.6085 18.4394 44.1835 19.2381 43.6267 19.9268C43.0698 20.6303 42.3737 21.1798 41.5384 21.5755C40.7031 21.9858 39.7505 22.191 38.6807 22.191C37.5963 22.191 36.6657 21.9712 35.889 21.5315C35.127 21.1065 34.4895 20.5423 33.9766 19.8389V26.1697H31.6465V7.37517H33.8887ZM38.4829 8.91391C37.7062 8.91391 37.0321 9.07511 36.4606 9.39751C35.9037 9.71991 35.4347 10.1449 35.0537 10.6725C34.6873 11.2 34.4162 11.8082 34.2404 12.497C34.0645 13.1711 33.9766 13.8745 33.9766 14.6072C33.9766 15.3399 34.0645 16.0507 34.2404 16.7395C34.4162 17.4136 34.6873 18.0144 35.0537 18.542C35.4347 19.0695 35.9037 19.4945 36.4606 19.8169C37.0321 20.1393 37.7062 20.3005 38.4829 20.3005C39.1863 20.3005 39.8165 20.1393 40.3733 19.8169C40.9449 19.4945 41.4211 19.0695 41.8022 18.542C42.1978 18.0144 42.4982 17.4136 42.7034 16.7395C42.9086 16.0507 43.0112 15.3399 43.0112 14.6072C43.0112 13.8745 42.9086 13.1711 42.7034 12.497C42.4982 11.8082 42.1978 11.2 41.8022 10.6725C41.4211 10.1449 40.9449 9.71991 40.3733 9.39751C39.8165 9.07511 39.1863 8.91391 38.4829 8.91391ZM52.8299 19.9049V21.7513H51.7308C50.7342 21.7513 49.9356 21.4509 49.3347 20.8501C48.7339 20.2492 48.4335 19.4506 48.4335 18.454V1.70384H50.7636V19.0256C50.7636 19.2894 50.8442 19.5019 51.0054 19.6631C51.1666 19.8243 51.379 19.9049 51.6428 19.9049H52.8299ZM55.6085 21.7513V7.37517H58.0265V21.7513H55.6085ZM55.1689 2.93483C55.1689 2.45123 55.3227 2.05555 55.6305 1.74781C55.9529 1.42541 56.3559 1.26421 56.8395 1.26421C57.3084 1.26421 57.6968 1.42541 58.0045 1.74781C58.3123 2.05555 58.4661 2.45123 58.4661 2.93483C58.4661 3.40378 58.3123 3.79212 58.0045 4.09987C57.6968 4.40762 57.3084 4.56149 56.8395 4.56149C56.3559 4.56149 55.9529 4.40762 55.6305 4.09987C55.3227 3.79212 55.1689 3.40378 55.1689 2.93483ZM64.2671 21.7513H61.8931V13.1784C61.8931 12.3284 62.0323 11.5298 62.3107 10.7824C62.6038 10.0203 63.0215 9.3682 63.5637 8.82598C64.1059 8.2691 64.7727 7.82947 65.5641 7.50706C66.3554 7.18466 67.2493 7.02346 68.2459 7.02346C69.2424 7.02346 70.1363 7.18466 70.9276 7.50706C71.719 7.82947 72.3858 8.2691 72.928 8.82598C73.4702 9.3682 73.8805 10.0203 74.159 10.7824C74.4521 11.5298 74.5986 12.3284 74.5986 13.1784V21.7513H72.2246V13.1784C72.2246 12.6508 72.1293 12.1306 71.9388 11.6177C71.763 11.1048 71.5065 10.6505 71.1694 10.2548C70.8324 9.84447 70.4147 9.52207 69.9165 9.2876C69.4329 9.03847 68.876 8.91391 68.2459 8.91391C67.6157 8.91391 67.0515 9.03847 66.5532 9.2876C66.0696 9.52207 65.652 9.84447 65.3003 10.2548C64.9632 10.6505 64.7068 11.1048 64.5309 11.6177C64.3551 12.1306 64.2671 12.6508 64.2671 13.1784V21.7513ZM89.1537 7.37517H91.3959V26.1697H89.0658V19.8389C88.5529 20.5423 87.9081 21.1065 87.1314 21.5315C86.3694 21.9712 85.4461 22.191 84.3617 22.191C83.2772 22.191 82.3174 21.9858 81.482 21.5755C80.6614 21.1798 79.9726 20.6303 79.4157 19.9268C78.8589 19.2381 78.4339 18.4394 78.1408 17.5308C77.8477 16.6076 77.7012 15.633 77.7012 14.6072C77.7012 13.5814 77.8477 12.6142 78.1408 11.7056C78.4339 10.7824 78.8589 9.97636 79.4157 9.2876C79.9726 8.59883 80.6614 8.04928 81.482 7.63896C82.3174 7.22863 83.2772 7.02346 84.3617 7.02346C85.4608 7.02346 86.406 7.25061 87.1973 7.7049C87.9887 8.15919 88.6408 8.76003 89.1537 9.50742V7.37517ZM84.5595 8.91391C83.8561 8.91391 83.2186 9.07511 82.6471 9.39751C82.0902 9.71991 81.6139 10.1449 81.2183 10.6725C80.8372 11.2 80.5442 11.8082 80.339 12.497C80.1338 13.1711 80.0312 13.8745 80.0312 14.6072C80.0312 15.3399 80.1338 16.0507 80.339 16.7395C80.5442 17.4136 80.8372 18.0144 81.2183 18.542C81.6139 19.0695 82.0902 19.4945 82.6471 19.8169C83.2186 20.1393 83.8561 20.3005 84.5595 20.3005C85.3362 20.3005 86.003 20.1393 86.5599 19.8169C87.1314 19.4945 87.6003 19.0695 87.9667 18.542C88.3477 18.0144 88.6262 17.4136 88.802 16.7395C88.9779 16.0507 89.0658 15.3399 89.0658 14.6072C89.0658 13.8745 88.9779 13.1711 88.802 12.497C88.6262 11.8082 88.3477 11.2 87.9667 10.6725C87.6003 10.1449 87.1314 9.71991 86.5599 9.39751C86.003 9.07511 85.3362 8.91391 84.5595 8.91391Z"/>
</mask>
<path d="M33.8887 7.37517V9.50742C34.4016 8.76003 35.0537 8.15919 35.8451 7.7049C36.6364 7.25061 37.5816 7.02346 38.6807 7.02346C39.7505 7.02346 40.7031 7.22863 41.5384 7.63896C42.3737 8.04928 43.0698 8.59883 43.6267 9.2876C44.1835 9.97636 44.6085 10.7824 44.9016 11.7056C45.1947 12.6142 45.3412 13.5814 45.3412 14.6072C45.3412 15.633 45.1947 16.6076 44.9016 17.5308C44.6085 18.4394 44.1835 19.2381 43.6267 19.9268C43.0698 20.6303 42.3737 21.1798 41.5384 21.5755C40.7031 21.9858 39.7505 22.191 38.6807 22.191C37.5963 22.191 36.6657 21.9712 35.889 21.5315C35.127 21.1065 34.4895 20.5423 33.9766 19.8389V26.1697H31.6465V7.37517H33.8887ZM38.4829 8.91391C37.7062 8.91391 37.0321 9.07511 36.4606 9.39751C35.9037 9.71991 35.4347 10.1449 35.0537 10.6725C34.6873 11.2 34.4162 11.8082 34.2404 12.497C34.0645 13.1711 33.9766 13.8745 33.9766 14.6072C33.9766 15.3399 34.0645 16.0507 34.2404 16.7395C34.4162 17.4136 34.6873 18.0144 35.0537 18.542C35.4347 19.0695 35.9037 19.4945 36.4606 19.8169C37.0321 20.1393 37.7062 20.3005 38.4829 20.3005C39.1863 20.3005 39.8165 20.1393 40.3733 19.8169C40.9449 19.4945 41.4211 19.0695 41.8022 18.542C42.1978 18.0144 42.4982 17.4136 42.7034 16.7395C42.9086 16.0507 43.0112 15.3399 43.0112 14.6072C43.0112 13.8745 42.9086 13.1711 42.7034 12.497C42.4982 11.8082 42.1978 11.2 41.8022 10.6725C41.4211 10.1449 40.9449 9.71991 40.3733 9.39751C39.8165 9.07511 39.1863 8.91391 38.4829 8.91391ZM52.8299 19.9049V21.7513H51.7308C50.7342 21.7513 49.9356 21.4509 49.3347 20.8501C48.7339 20.2492 48.4335 19.4506 48.4335 18.454V1.70384H50.7636V19.0256C50.7636 19.2894 50.8442 19.5019 51.0054 19.6631C51.1666 19.8243 51.379 19.9049 51.6428 19.9049H52.8299ZM55.6085 21.7513V7.37517H58.0265V21.7513H55.6085ZM55.1689 2.93483C55.1689 2.45123 55.3227 2.05555 55.6305 1.74781C55.9529 1.42541 56.3559 1.26421 56.8395 1.26421C57.3084 1.26421 57.6968 1.42541 58.0045 1.74781C58.3123 2.05555 58.4661 2.45123 58.4661 2.93483C58.4661 3.40378 58.3123 3.79212 58.0045 4.09987C57.6968 4.40762 57.3084 4.56149 56.8395 4.56149C56.3559 4.56149 55.9529 4.40762 55.6305 4.09987C55.3227 3.79212 55.1689 3.40378 55.1689 2.93483ZM64.2671 21.7513H61.8931V13.1784C61.8931 12.3284 62.0323 11.5298 62.3107 10.7824C62.6038 10.0203 63.0215 9.3682 63.5637 8.82598C64.1059 8.2691 64.7727 7.82947 65.5641 7.50706C66.3554 7.18466 67.2493 7.02346 68.2459 7.02346C69.2424 7.02346 70.1363 7.18466 70.9276 7.50706C71.719 7.82947 72.3858 8.2691 72.928 8.82598C73.4702 9.3682 73.8805 10.0203 74.159 10.7824C74.4521 11.5298 74.5986 12.3284 74.5986 13.1784V21.7513H72.2246V13.1784C72.2246 12.6508 72.1293 12.1306 71.9388 11.6177C71.763 11.1048 71.5065 10.6505 71.1694 10.2548C70.8324 9.84447 70.4147 9.52207 69.9165 9.2876C69.4329 9.03847 68.876 8.91391 68.2459 8.91391C67.6157 8.91391 67.0515 9.03847 66.5532 9.2876C66.0696 9.52207 65.652 9.84447 65.3003 10.2548C64.9632 10.6505 64.7068 11.1048 64.5309 11.6177C64.3551 12.1306 64.2671 12.6508 64.2671 13.1784V21.7513ZM89.1537 7.37517H91.3959V26.1697H89.0658V19.8389C88.5529 20.5423 87.9081 21.1065 87.1314 21.5315C86.3694 21.9712 85.4461 22.191 84.3617 22.191C83.2772 22.191 82.3174 21.9858 81.482 21.5755C80.6614 21.1798 79.9726 20.6303 79.4157 19.9268C78.8589 19.2381 78.4339 18.4394 78.1408 17.5308C77.8477 16.6076 77.7012 15.633 77.7012 14.6072C77.7012 13.5814 77.8477 12.6142 78.1408 11.7056C78.4339 10.7824 78.8589 9.97636 79.4157 9.2876C79.9726 8.59883 80.6614 8.04928 81.482 7.63896C82.3174 7.22863 83.2772 7.02346 84.3617 7.02346C85.4608 7.02346 86.406 7.25061 87.1973 7.7049C87.9887 8.15919 88.6408 8.76003 89.1537 9.50742V7.37517ZM84.5595 8.91391C83.8561 8.91391 83.2186 9.07511 82.6471 9.39751C82.0902 9.71991 81.6139 10.1449 81.2183 10.6725C80.8372 11.2 80.5442 11.8082 80.339 12.497C80.1338 13.1711 80.0312 13.8745 80.0312 14.6072C80.0312 15.3399 80.1338 16.0507 80.339 16.7395C80.5442 17.4136 80.8372 18.0144 81.2183 18.542C81.6139 19.0695 82.0902 19.4945 82.6471 19.8169C83.2186 20.1393 83.8561 20.3005 84.5595 20.3005C85.3362 20.3005 86.003 20.1393 86.5599 19.8169C87.1314 19.4945 87.6003 19.0695 87.9667 18.542C88.3477 18.0144 88.6262 17.4136 88.802 16.7395C88.9779 16.0507 89.0658 15.3399 89.0658 14.6072C89.0658 13.8745 88.9779 13.1711 88.802 12.497C88.6262 11.8082 88.3477 11.2 87.9667 10.6725C87.6003 10.1449 87.1314 9.71991 86.5599 9.39751C86.003 9.07511 85.3362 8.91391 84.5595 8.91391Z" fill="url(#paint0_linear_967_12273)"/>
<path d="M33.8887 7.37517H34.2686V6.99528H33.8887V7.37517ZM33.8887 9.50742H33.5088V10.7324L34.2019 9.72238L33.8887 9.50742ZM35.8451 7.7049L36.0342 8.03437V8.03437L35.8451 7.7049ZM41.5384 7.63896L41.7059 7.29798V7.29798L41.5384 7.63896ZM44.9016 11.7056L44.5395 11.8206L44.5401 11.8222L44.9016 11.7056ZM44.9016 17.5308L45.2632 17.6474L45.2637 17.6458L44.9016 17.5308ZM43.6267 19.9268L43.3312 19.688L43.3288 19.691L43.6267 19.9268ZM41.5384 21.5755L41.3757 21.2321L41.3709 21.2345L41.5384 21.5755ZM35.889 21.5315L36.0762 21.2009L36.0741 21.1997L35.889 21.5315ZM33.9766 19.8389L34.2836 19.6151L33.5967 18.6731V19.8389H33.9766ZM33.9766 26.1697V26.5496H34.3565V26.1697H33.9766ZM31.6465 26.1697H31.2666V26.5496H31.6465V26.1697ZM31.6465 7.37517V6.99528H31.2666V7.37517H31.6465ZM36.4606 9.39751L36.2739 9.06661L36.2702 9.06874L36.4606 9.39751ZM35.0537 10.6725L34.7457 10.45L34.7417 10.4558L35.0537 10.6725ZM34.2404 12.497L34.608 12.5928L34.6085 12.5909L34.2404 12.497ZM34.2404 16.7395L33.8723 16.8334L33.8728 16.8354L34.2404 16.7395ZM35.0537 18.542L34.7416 18.7587L34.7457 18.7644L35.0537 18.542ZM36.4606 19.8169L36.2702 20.1457L36.2739 20.1478L36.4606 19.8169ZM40.3733 19.8169L40.1867 19.486L40.183 19.4882L40.3733 19.8169ZM41.8022 18.542L41.4982 18.314L41.4942 18.3195L41.8022 18.542ZM42.7034 16.7395L43.0669 16.8501L43.0675 16.8479L42.7034 16.7395ZM42.7034 12.497L42.3393 12.6054L42.34 12.6076L42.7034 12.497ZM41.8022 10.6725L41.4941 10.8949L41.4982 10.9004L41.8022 10.6725ZM40.3733 9.39751L40.183 9.7263L40.1867 9.72839L40.3733 9.39751ZM33.8887 7.37517H33.5088V9.50742H33.8887H34.2686V7.37517H33.8887ZM33.8887 9.50742L34.2019 9.72238C34.6823 9.02231 35.2919 8.46048 36.0342 8.03437L35.8451 7.7049L35.6559 7.37544C34.8155 7.85791 34.1208 8.49776 33.5754 9.29246L33.8887 9.50742ZM35.8451 7.7049L36.0342 8.03437C36.7573 7.61927 37.6344 7.40336 38.6807 7.40336V7.02346V6.64357C37.5288 6.64357 36.5156 6.88195 35.6559 7.37544L35.8451 7.7049ZM38.6807 7.02346V7.40336C39.7011 7.40336 40.595 7.59879 41.3709 7.97993L41.5384 7.63896L41.7059 7.29798C40.8112 6.85847 39.7999 6.64357 38.6807 6.64357V7.02346ZM41.5384 7.63896L41.3709 7.97993C42.1592 8.36718 42.8108 8.88279 43.3312 9.52645L43.6267 9.2876L43.9221 9.04875C43.3287 8.31488 42.5882 7.73139 41.7059 7.29798L41.5384 7.63896ZM43.6267 9.2876L43.3312 9.52645C43.8557 10.1751 44.2594 10.9382 44.5395 11.8206L44.9016 11.7056L45.2637 11.5907C44.9576 10.6266 44.5114 9.77761 43.9221 9.04875L43.6267 9.2876ZM44.9016 11.7056L44.5401 11.8222C44.8201 12.6904 44.9613 13.618 44.9613 14.6072H45.3412H45.7211C45.7211 13.5447 45.5693 12.538 45.2632 11.589L44.9016 11.7056ZM45.3412 14.6072H44.9613C44.9613 15.5963 44.8201 16.5319 44.5395 17.4159L44.9016 17.5308L45.2637 17.6458C45.5693 16.6832 45.7211 15.6697 45.7211 14.6072H45.3412ZM44.9016 17.5308L44.5401 17.4142C44.2602 18.2818 43.8565 19.0383 43.3312 19.688L43.6267 19.9268L43.9221 20.1657C44.5105 19.4379 44.9568 18.597 45.2632 17.6474L44.9016 17.5308ZM43.6267 19.9268L43.3288 19.691C42.8093 20.3473 42.16 20.8607 41.3757 21.2322L41.5384 21.5755L41.701 21.9188C42.5874 21.4989 43.3303 20.9132 43.9245 20.1626L43.6267 19.9268ZM41.5384 21.5755L41.3709 21.2345C40.595 21.6156 39.7011 21.8111 38.6807 21.8111V22.191V22.5709C39.7999 22.5709 40.8112 22.356 41.7059 21.9165L41.5384 21.5755ZM38.6807 22.191V21.8111C37.6478 21.8111 36.7847 21.602 36.0762 21.2009L35.889 21.5315L35.7019 21.8621C36.5467 22.3403 37.5447 22.5709 38.6807 22.5709V22.191ZM35.889 21.5315L36.0741 21.1997C35.3599 20.8014 34.764 20.274 34.2836 19.6151L33.9766 19.8389L33.6696 20.0627C34.215 20.8106 34.8941 21.4116 35.704 21.8633L35.889 21.5315ZM33.9766 19.8389H33.5967V26.1697H33.9766H34.3565V19.8389H33.9766ZM33.9766 26.1697V25.7898H31.6465V26.1697V26.5496H33.9766V26.1697ZM31.6465 26.1697H32.0264V7.37517H31.6465H31.2666V26.1697H31.6465ZM31.6465 7.37517V7.75507H33.8887V7.37517V6.99528H31.6465V7.37517ZM38.4829 8.91391V8.53401C37.6528 8.53401 36.912 8.70665 36.2739 9.06663L36.4606 9.39751L36.6472 9.72839C37.1521 9.44356 37.7595 9.2938 38.4829 9.2938V8.91391ZM36.4606 9.39751L36.2702 9.06874C35.6665 9.41823 35.1577 9.87964 34.7457 10.45L35.0537 10.6725L35.3617 10.8949C35.7118 10.4101 36.1408 10.0216 36.6509 9.72628L36.4606 9.39751ZM35.0537 10.6725L34.7417 10.4558C34.3468 11.0243 34.0582 11.675 33.8723 12.403L34.2404 12.497L34.6085 12.5909C34.7743 11.9414 35.0279 11.3757 35.3657 10.8891L35.0537 10.6725ZM34.2404 12.497L33.8728 12.4011C33.6884 13.1081 33.5967 13.8438 33.5967 14.6072H33.9766H34.3565C34.3565 13.9052 34.4407 13.2341 34.608 12.5928L34.2404 12.497ZM33.9766 14.6072H33.5967C33.5967 15.3707 33.6884 16.113 33.8723 16.8334L34.2404 16.7395L34.6085 16.6455C34.4407 15.9884 34.3565 15.3092 34.3565 14.6072H33.9766ZM34.2404 16.7395L33.8728 16.8354C34.059 17.549 34.3478 18.1914 34.7417 18.7587L35.0537 18.542L35.3657 18.3253C35.0269 17.8374 34.7735 17.2781 34.608 16.6436L34.2404 16.7395ZM35.0537 18.542L34.7457 18.7644C35.1577 19.3348 35.6665 19.7962 36.2702 20.1457L36.4606 19.8169L36.6509 19.4882C36.1408 19.1928 35.7118 18.8043 35.3617 18.3195L35.0537 18.542ZM36.4606 19.8169L36.2739 20.1478C36.912 20.5078 37.6528 20.6804 38.4829 20.6804V20.3005V19.9206C37.7595 19.9206 37.1521 19.7709 36.6472 19.486L36.4606 19.8169ZM38.4829 20.3005V20.6804C39.2467 20.6804 39.9436 20.5047 40.5637 20.1457L40.3733 19.8169L40.183 19.4882C39.6893 19.774 39.1259 19.9206 38.4829 19.9206V20.3005ZM40.3733 19.8169L40.56 20.1478C41.1789 19.7987 41.6967 19.3368 42.1101 18.7644L41.8022 18.542L41.4942 18.3195C41.1456 18.8022 40.7108 19.1904 40.1867 19.486L40.3733 19.8169ZM41.8022 18.542L42.1061 18.7699C42.53 18.2046 42.8497 17.5635 43.0668 16.8501L42.7034 16.7395L42.34 16.6288C42.1468 17.2636 41.8656 17.8242 41.4982 18.314L41.8022 18.542ZM42.7034 16.7395L43.0675 16.8479C43.2834 16.1233 43.3911 15.3759 43.3911 14.6072H43.0112H42.6313C42.6313 15.3039 42.5338 15.9781 42.3393 16.631L42.7034 16.7395ZM43.0112 14.6072H43.3911C43.3911 13.8385 43.2834 13.0977 43.0668 12.3863L42.7034 12.497L42.34 12.6076C42.5338 13.2444 42.6313 13.9105 42.6313 14.6072H43.0112ZM42.7034 12.497L43.0675 12.3885C42.8507 11.6605 42.531 11.0111 42.1061 10.4445L41.8022 10.6725L41.4982 10.9004C41.8646 11.3889 42.1458 11.9558 42.3393 12.6054L42.7034 12.497ZM41.8022 10.6725L42.1101 10.45C41.6967 9.87759 41.1789 9.41576 40.56 9.06663L40.3733 9.39751L40.1867 9.72839C40.7108 10.0241 41.1456 10.4122 41.4942 10.8949L41.8022 10.6725ZM40.3733 9.39751L40.5637 9.06874C39.9436 8.70977 39.2467 8.53401 38.4829 8.53401V8.91391V9.2938C39.1259 9.2938 39.6893 9.44044 40.183 9.72628L40.3733 9.39751ZM52.8299 19.9049H53.2097V19.525H52.8299V19.9049ZM52.8299 21.7513V22.1312H53.2097V21.7513H52.8299ZM49.3347 20.8501L49.6034 20.5814V20.5814L49.3347 20.8501ZM48.4335 1.70384V1.32395H48.0536V1.70384H48.4335ZM50.7636 1.70384H51.1434V1.32395H50.7636V1.70384ZM51.0054 19.6631L50.7367 19.9317H50.7367L51.0054 19.6631ZM52.8299 19.9049H52.45V21.7513H52.8299H53.2097V19.9049H52.8299ZM52.8299 21.7513V21.3714H51.7308V21.7513V22.1312H52.8299V21.7513ZM51.7308 21.7513V21.3714C50.8162 21.3714 50.1207 21.0988 49.6034 20.5814L49.3347 20.8501L49.0661 21.1187C49.7504 21.803 50.6523 22.1312 51.7308 22.1312V21.7513ZM49.3347 20.8501L49.6034 20.5814C49.086 20.0641 48.8134 19.3686 48.8134 18.454H48.4335H48.0536C48.0536 19.5326 48.3818 20.4344 49.0661 21.1187L49.3347 20.8501ZM48.4335 18.454H48.8134V1.70384H48.4335H48.0536V18.454H48.4335ZM48.4335 1.70384V2.08374H50.7636V1.70384V1.32395H48.4335V1.70384ZM50.7636 1.70384H50.3837V19.0256H50.7636H51.1434V1.70384H50.7636ZM50.7636 19.0256H50.3837C50.3837 19.373 50.493 19.688 50.7367 19.9317L51.0054 19.6631L51.274 19.3944C51.1953 19.3157 51.1434 19.2057 51.1434 19.0256H50.7636ZM51.0054 19.6631L50.7367 19.9317C50.9804 20.1754 51.2954 20.2847 51.6428 20.2847V19.9049V19.525C51.4627 19.525 51.3527 19.4731 51.274 19.3944L51.0054 19.6631ZM51.6428 19.9049V20.2847H52.8299V19.9049V19.525H51.6428V19.9049ZM55.6085 21.7513H55.2286V22.1312H55.6085V21.7513ZM55.6085 7.37517V6.99528H55.2286V7.37517H55.6085ZM58.0265 7.37517H58.4064V6.99528H58.0265V7.37517ZM58.0265 21.7513V22.1312H58.4064V21.7513H58.0265ZM55.6305 1.74781L55.3619 1.47918V1.47918L55.6305 1.74781ZM58.0045 1.74781L57.7297 2.01019L57.7359 2.01644L58.0045 1.74781ZM58.0045 4.09987L57.7359 3.83124V3.83124L58.0045 4.09987ZM55.6305 4.09987L55.3618 4.36857L55.3682 4.37467L55.6305 4.09987ZM55.6085 21.7513H55.9884V7.37517H55.6085H55.2286V21.7513H55.6085ZM55.6085 7.37517V7.75507H58.0265V7.37517V6.99528H55.6085V7.37517ZM58.0265 7.37517H57.6466V21.7513H58.0265H58.4064V7.37517H58.0265ZM58.0265 21.7513V21.3714H55.6085V21.7513V22.1312H58.0265V21.7513ZM55.1689 2.93483H55.5488C55.5488 2.53971 55.6708 2.24471 55.8991 2.01644L55.6305 1.74781L55.3619 1.47918C54.9746 1.8664 54.789 2.36275 54.789 2.93483H55.1689ZM55.6305 1.74781L55.8991 2.01644C56.1456 1.76994 56.4499 1.6441 56.8395 1.6441V1.26421V0.88431C56.2619 0.88431 55.7602 1.08088 55.3619 1.47918L55.6305 1.74781ZM56.8395 1.26421V1.6441C57.2107 1.6441 57.4977 1.76709 57.7297 2.01012L58.0045 1.74781L58.2793 1.4855C57.8958 1.08372 57.4062 0.88431 56.8395 0.88431V1.26421ZM58.0045 1.74781L57.7359 2.01644C57.9642 2.24471 58.0862 2.53971 58.0862 2.93483H58.4661H58.846C58.846 2.36275 58.6604 1.8664 58.2732 1.47918L58.0045 1.74781ZM58.4661 2.93483H58.0862C58.0862 3.31165 57.9665 3.60062 57.7359 3.83124L58.0045 4.09987L58.2732 4.3685C58.658 3.98363 58.846 3.4959 58.846 2.93483H58.4661ZM58.0045 4.09987L57.7359 3.83124C57.5053 4.06187 57.2163 4.18159 56.8395 4.18159V4.56149V4.94139C57.4006 4.94139 57.8883 4.75337 58.2732 4.3685L58.0045 4.09987ZM56.8395 4.56149V4.18159C56.4445 4.18159 56.1382 4.05933 55.8928 3.82507L55.6305 4.09987L55.3682 4.37467C55.7676 4.75591 56.2673 4.94139 56.8395 4.94139V4.56149ZM55.6305 4.09987L55.8991 3.83124C55.6685 3.60062 55.5488 3.31165 55.5488 2.93483H55.1689H54.789C54.789 3.4959 54.977 3.98363 55.3619 4.3685L55.6305 4.09987ZM64.2671 21.7513V22.1312H64.647V21.7513H64.2671ZM61.8931 21.7513H61.5132V22.1312H61.8931V21.7513ZM62.3107 10.7824L61.9562 10.646L61.9548 10.6497L62.3107 10.7824ZM63.5637 8.82598L63.8324 9.09463L63.8359 9.091L63.5637 8.82598ZM65.5641 7.50706L65.7074 7.85888V7.85888L65.5641 7.50706ZM70.9276 7.50706L70.7843 7.85888V7.85888L70.9276 7.50706ZM72.928 8.82598L72.6558 9.09102L72.6594 9.09461L72.928 8.82598ZM74.159 10.7824L73.8021 10.9128L73.8053 10.9211L74.159 10.7824ZM74.5986 21.7513V22.1312H74.9785V21.7513H74.5986ZM72.2246 21.7513H71.8447V22.1312H72.2246V21.7513ZM71.9388 11.6177L71.5793 11.7409L71.5827 11.75L71.9388 11.6177ZM71.1694 10.2548L70.8758 10.496L70.8803 10.5012L71.1694 10.2548ZM69.9165 9.2876L69.7424 9.62553L69.7547 9.63134L69.9165 9.2876ZM66.5532 9.2876L66.719 9.62946L66.7231 9.62739L66.5532 9.2876ZM65.3003 10.2548L65.0118 10.0076L65.0111 10.0085L65.3003 10.2548ZM64.2671 21.7513V21.3714H61.8931V21.7513V22.1312H64.2671V21.7513ZM61.8931 21.7513H62.273V13.1784H61.8931H61.5132V21.7513H61.8931ZM61.8931 13.1784H62.273C62.273 12.3707 62.4051 11.6172 62.6667 10.915L62.3107 10.7824L61.9548 10.6497C61.6595 11.4423 61.5132 12.2861 61.5132 13.1784H61.8931ZM62.3107 10.7824L62.6653 10.9187C62.9406 10.203 63.3301 9.59684 63.8323 9.09461L63.5637 8.82598L63.2951 8.55735C62.7129 9.13955 62.2671 9.83761 61.9562 10.646L62.3107 10.7824ZM63.5637 8.82598L63.8359 9.091C64.3381 8.5752 64.9597 8.16351 65.7074 7.85888L65.5641 7.50706L65.4207 7.15525C64.5858 7.49542 63.8737 7.963 63.2915 8.56096L63.5637 8.82598ZM65.5641 7.50706L65.7074 7.85888C66.4463 7.55784 67.2904 7.40336 68.2459 7.40336V7.02346V6.64357C67.2083 6.64357 66.2645 6.81149 65.4207 7.15525L65.5641 7.50706ZM68.2459 7.02346V7.40336C69.2013 7.40336 70.0454 7.55784 70.7843 7.85888L70.9276 7.50706L71.071 7.15525C70.2272 6.81149 69.2835 6.64357 68.2459 6.64357V7.02346ZM70.9276 7.50706L70.7843 7.85888C71.532 8.16351 72.1536 8.5752 72.6558 9.091L72.928 8.82598L73.2002 8.56096C72.618 7.963 71.9059 7.49542 71.071 7.15525L70.9276 7.50706ZM72.928 8.82598L72.6594 9.09461C73.1602 9.59546 73.5416 10.1996 73.8022 10.9127L74.159 10.7824L74.5158 10.652C74.2195 9.84107 73.7802 9.14094 73.1966 8.55735L72.928 8.82598ZM74.159 10.7824L73.8053 10.9211C74.0801 11.6217 74.2187 12.3731 74.2187 13.1784H74.5986H74.9785C74.9785 12.2838 74.8241 11.4378 74.5127 10.6437L74.159 10.7824ZM74.5986 13.1784H74.2187V21.7513H74.5986H74.9785V13.1784H74.5986ZM74.5986 21.7513V21.3714H72.2246V21.7513V22.1312H74.5986V21.7513ZM72.2246 21.7513H72.6045V13.1784H72.2246H71.8447V21.7513H72.2246ZM72.2246 13.1784H72.6045C72.6045 12.604 72.5006 12.039 72.2949 11.4854L71.9388 11.6177L71.5827 11.75C71.7581 12.2221 71.8447 12.6977 71.8447 13.1784H72.2246ZM71.9388 11.6177L72.2982 11.4945C72.1075 10.9385 71.8279 10.442 71.4586 10.0085L71.1694 10.2548L70.8803 10.5012C71.1851 10.859 71.4184 11.2711 71.5795 11.7409L71.9388 11.6177ZM71.1694 10.2548L71.463 10.0137C71.0888 9.55816 70.6256 9.20142 70.0782 8.94386L69.9165 9.2876L69.7547 9.63134C70.2039 9.84272 70.576 10.1308 70.8759 10.4959L71.1694 10.2548ZM69.9165 9.2876L70.0905 8.94988C69.5451 8.66895 68.9269 8.53401 68.2459 8.53401V8.91391V9.2938C68.8251 9.2938 69.3206 9.408 69.7425 9.62532L69.9165 9.2876ZM68.2459 8.91391V8.53401C67.5645 8.53401 66.9409 8.66903 66.3834 8.94781L66.5532 9.2876L66.7231 9.62739C67.1621 9.40791 67.6669 9.2938 68.2459 9.2938V8.91391ZM66.5532 9.2876L66.3875 8.94576C65.8567 9.20314 65.3973 9.55784 65.0118 10.0076L65.3003 10.2548L65.5887 10.502C65.9067 10.1311 66.2826 9.84101 66.719 9.62943L66.5532 9.2876ZM65.3003 10.2548L65.0111 10.0085C64.6418 10.442 64.3622 10.9385 64.1716 11.4945L64.5309 11.6177L64.8903 11.7409C65.0514 11.2711 65.2847 10.859 65.5895 10.5012L65.3003 10.2548ZM64.5309 11.6177L64.1716 11.4945C63.9825 12.0459 63.8872 12.6077 63.8872 13.1784H64.2671H64.647C64.647 12.6939 64.7276 12.2153 64.8903 11.7409L64.5309 11.6177ZM64.2671 13.1784H63.8872V21.7513H64.2671H64.647V13.1784H64.2671ZM89.1537 7.37517V6.99528H88.7738V7.37517H89.1537ZM91.3959 7.37517H91.7758V6.99528H91.3959V7.37517ZM91.3959 26.1697V26.5496H91.7758V26.1697H91.3959ZM89.0658 26.1697H88.6859V26.5496H89.0658V26.1697ZM89.0658 19.8389H89.4457V18.6731L88.7588 19.6151L89.0658 19.8389ZM87.1314 21.5315L86.949 21.1982L86.9416 21.2025L87.1314 21.5315ZM81.482 21.5755L81.6496 21.2345L81.647 21.2333L81.482 21.5755ZM79.4157 19.9268L79.7136 19.691L79.7112 19.688L79.4157 19.9268ZM78.1408 17.5308L77.7787 17.6458L77.7793 17.6474L78.1408 17.5308ZM78.1408 11.7056L78.5024 11.8222L78.5029 11.8206L78.1408 11.7056ZM79.4157 9.2876L79.1203 9.04875L79.4157 9.2876ZM81.482 7.63896L81.3145 7.29797L81.3122 7.29917L81.482 7.63896ZM87.1973 7.7049L87.0082 8.03437V8.03437L87.1973 7.7049ZM89.1537 9.50742L88.8405 9.72238L89.5336 10.7324V9.50742H89.1537ZM82.6471 9.39751L82.4604 9.06661L82.4567 9.06874L82.6471 9.39751ZM81.2183 10.6725L80.9143 10.4445L80.9103 10.45L81.2183 10.6725ZM80.339 12.497L80.7024 12.6076L80.7031 12.6054L80.339 12.497ZM80.339 16.7395L79.9749 16.8479L79.9756 16.8501L80.339 16.7395ZM81.2183 18.542L80.9102 18.7644L80.9143 18.7699L81.2183 18.542ZM82.6471 19.8169L82.4567 20.1457L82.4604 20.1478L82.6471 19.8169ZM86.5599 19.8169L86.3732 19.486L86.3695 19.4882L86.5599 19.8169ZM87.9667 18.542L87.6587 18.3195L87.6547 18.3253L87.9667 18.542ZM88.802 16.7395L89.1696 16.8354L89.1701 16.8334L88.802 16.7395ZM88.802 12.497L88.4339 12.5909L88.4344 12.5928L88.802 12.497ZM87.9667 10.6725L87.6546 10.8892L87.6587 10.8949L87.9667 10.6725ZM86.5599 9.39751L86.3695 9.7263L86.3732 9.72839L86.5599 9.39751ZM89.1537 7.37517V7.75507H91.3959V7.37517V6.99528H89.1537V7.37517ZM91.3959 7.37517H91.016V26.1697H91.3959H91.7758V7.37517H91.3959ZM91.3959 26.1697V25.7898H89.0658V26.1697V26.5496H91.3959V26.1697ZM89.0658 26.1697H89.4457V19.8389H89.0658H88.6859V26.1697H89.0658ZM89.0658 19.8389L88.7588 19.6151C88.2795 20.2725 87.6775 20.7997 86.949 21.1982L87.1314 21.5315L87.3138 21.8648C88.1387 21.4134 88.8263 20.8122 89.3728 20.0627L89.0658 19.8389ZM87.1314 21.5315L86.9416 21.2025C86.2492 21.6019 85.3949 21.8111 84.3617 21.8111V22.191V22.5709C85.4974 22.5709 86.4895 22.3404 87.3212 21.8606L87.1314 21.5315ZM84.3617 22.191V21.8111C83.3257 21.8111 82.4248 21.6153 81.6495 21.2345L81.482 21.5755L81.3146 21.9165C82.2099 22.3563 83.2287 22.5709 84.3617 22.5709V22.191ZM81.482 21.5755L81.647 21.2333C80.8773 20.8622 80.2342 20.3487 79.7136 19.691L79.4157 19.9268L79.1179 20.1626C79.711 20.9118 80.4455 21.4974 81.3171 21.9177L81.482 21.5755ZM79.4157 19.9268L79.7112 19.688C79.1859 19.0383 78.7822 18.2818 78.5023 17.4142L78.1408 17.5308L77.7793 17.6474C78.0856 18.597 78.5319 19.4379 79.1203 20.1657L79.4157 19.9268ZM78.1408 17.5308L78.5029 17.4159C78.2223 16.5319 78.0811 15.5963 78.0811 14.6072H77.7012H77.3213C77.3213 15.6697 77.4731 16.6832 77.7787 17.6458L78.1408 17.5308ZM77.7012 14.6072H78.0811C78.0811 13.618 78.2223 12.6904 78.5023 11.8222L78.1408 11.7056L77.7793 11.589C77.4731 12.538 77.3213 13.5447 77.3213 14.6072H77.7012ZM78.1408 11.7056L78.5029 11.8206C78.783 10.9382 79.1867 10.1751 79.7112 9.52645L79.4157 9.2876L79.1203 9.04875C78.531 9.77761 78.0848 10.6266 77.7787 11.5907L78.1408 11.7056ZM79.4157 9.2876L79.7112 9.52645C80.2327 8.88144 80.8781 8.36568 81.6519 7.97875L81.482 7.63896L81.3122 7.29917C80.4447 7.73289 79.7126 8.31622 79.1203 9.04875L79.4157 9.2876ZM81.482 7.63896L81.6495 7.97993C82.4248 7.59912 83.3257 7.40336 84.3617 7.40336V7.02346V6.64357C83.2287 6.64357 82.2099 6.85814 81.3146 7.29798L81.482 7.63896ZM84.3617 7.02346V7.40336C85.408 7.40336 86.2851 7.61927 87.0082 8.03437L87.1973 7.7049L87.3865 7.37544C86.5269 6.88195 85.5136 6.64357 84.3617 6.64357V7.02346ZM87.1973 7.7049L87.0082 8.03437C87.7505 8.46048 88.3601 9.02231 88.8405 9.72238L89.1537 9.50742L89.467 9.29246C88.9216 8.49776 88.2269 7.85791 87.3865 7.37544L87.1973 7.7049ZM89.1537 9.50742H89.5336V7.37517H89.1537H88.7738V9.50742H89.1537ZM84.5595 8.91391V8.53401C83.7956 8.53401 83.093 8.70979 82.4604 9.06663L82.6471 9.39751L82.8337 9.72839C83.3442 9.44043 83.9166 9.2938 84.5595 9.2938V8.91391ZM82.6471 9.39751L82.4567 9.06874C81.8545 9.41741 81.3399 9.87708 80.9143 10.4445L81.2183 10.6725L81.5222 10.9004C81.888 10.4127 82.3259 10.0224 82.8374 9.72628L82.6471 9.39751ZM81.2183 10.6725L80.9103 10.45C80.5018 11.0156 80.191 11.6631 79.9749 12.3885L80.339 12.497L80.7031 12.6054C80.8973 11.9533 81.1727 11.3845 81.5262 10.8949L81.2183 10.6725ZM80.339 12.497L79.9756 12.3863C79.759 13.0977 79.6513 13.8385 79.6513 14.6072H80.0312H80.4111C80.4111 13.9105 80.5086 13.2444 80.7024 12.6076L80.339 12.497ZM80.0312 14.6072H79.6513C79.6513 15.3759 79.759 16.1233 79.9749 16.8479L80.339 16.7395L80.7031 16.631C80.5086 15.9781 80.4111 15.3039 80.4111 14.6072H80.0312ZM80.339 16.7395L79.9756 16.8501C80.1919 17.5609 80.5028 18.2002 80.9103 18.7644L81.2183 18.542L81.5262 18.3195C81.1717 17.8286 80.8964 17.2662 80.7024 16.6288L80.339 16.7395ZM81.2183 18.542L80.9143 18.7699C81.3399 19.3374 81.8545 19.797 82.4567 20.1457L82.6471 19.8169L82.8374 19.4882C82.3259 19.192 81.888 18.8017 81.5222 18.314L81.2183 18.542ZM82.6471 19.8169L82.4604 20.1478C83.093 20.5046 83.7956 20.6804 84.5595 20.6804V20.3005V19.9206C83.9166 19.9206 83.3442 19.774 82.8337 19.486L82.6471 19.8169ZM84.5595 20.3005V20.6804C85.3892 20.6804 86.1246 20.5079 86.7502 20.1457L86.5599 19.8169L86.3695 19.4882C85.8814 19.7708 85.2832 19.9206 84.5595 19.9206V20.3005ZM86.5599 19.8169L86.7465 20.1478C87.3668 19.7979 87.879 19.3343 88.2787 18.7587L87.9667 18.542L87.6547 18.3253C87.3217 18.8048 86.896 19.1911 86.3732 19.486L86.5599 19.8169ZM87.9667 18.542L88.2747 18.7644C88.6851 18.1961 88.9827 17.5517 89.1696 16.8354L88.802 16.7395L88.4344 16.6436C88.2696 17.2754 88.0103 17.8327 87.6587 18.3195L87.9667 18.542ZM88.802 16.7395L89.1701 16.8334C89.354 16.113 89.4457 15.3707 89.4457 14.6072H89.0658H88.6859C88.6859 15.3092 88.6017 15.9884 88.4339 16.6455L88.802 16.7395ZM89.0658 14.6072H89.4457C89.4457 13.8438 89.354 13.1081 89.1696 12.4011L88.802 12.497L88.4344 12.5928C88.6017 13.2341 88.6859 13.9052 88.6859 14.6072H89.0658ZM88.802 12.497L89.1701 12.403C88.9835 11.6723 88.6861 11.0197 88.2747 10.45L87.9667 10.6725L87.6587 10.8949C88.0094 11.3804 88.2688 11.9441 88.4339 12.5909L88.802 12.497ZM87.9667 10.6725L88.2787 10.4558C87.879 9.88014 87.3668 9.41653 86.7465 9.06663L86.5599 9.39751L86.3732 9.72839C86.896 10.0233 87.3217 10.4096 87.6547 10.8891L87.9667 10.6725ZM86.5599 9.39751L86.7502 9.06874C86.1246 8.70654 85.3892 8.53401 84.5595 8.53401V8.91391V9.2938C85.2832 9.2938 85.8814 9.44368 86.3695 9.72628L86.5599 9.39751Z" fill="url(#paint1_linear_967_12273)" mask="url(#path-5-outside-1_967_12273)"/>
<defs>
<linearGradient id="paint0_linear_967_12273" x1="29.822" y1="11.8717" x2="93.822" y2="11.8717" gradientUnits="userSpaceOnUse">
<stop stop-color="#6C8DA5"/>
<stop offset="1" stop-color="#BFD6E7"/>
</linearGradient>
<linearGradient id="paint1_linear_967_12273" x1="29.822" y1="11.8717" x2="93.822" y2="11.8717" gradientUnits="userSpaceOnUse">
<stop stop-color="#6C8DA5"/>
<stop offset="1" stop-color="#BFD6E7"/>
</linearGradient>
</defs>
</svg>
