<svg width="24" height="24" viewBox="0 0 24 24" fill="none" xmlns="http://www.w3.org/2000/svg">
<path d="M11.0171 0.95772C11.0171 0.428785 10.5883 0 10.0594 0H2.87326C1.28646 0 0.000102997 1.28636 0.000102997 2.87316V10.0593C0.000102997 10.5882 0.428889 11.017 0.957824 11.017H6.22849C8.87316 11.017 11.0171 8.87305 11.0171 6.22838V0.95772Z" fill="#3D5466"/>
<circle cx="18.2351" cy="5.50849" r="5.50849" fill="#6AA7CF"/>
<path d="M0 13.6842C0 13.1552 0.428786 12.7264 0.957721 12.7264H6.22838C8.87306 12.7264 11.017 14.8704 11.017 17.515V22.7857C11.017 23.3146 10.5882 23.7434 10.0593 23.7434H4.7886C2.14393 23.7434 0 21.5995 0 18.9548V13.6842Z" fill="#6BA7CC"/>
<path d="M12.7263 13.6842C12.7263 13.1552 13.1551 12.7264 13.684 12.7264H20.3913C22.2426 12.7264 23.7433 14.2272 23.7433 16.0785V20.8703C23.7433 22.4571 22.4569 23.7434 20.8701 23.7434H14.1629C13.3695 23.7434 12.7263 23.1002 12.7263 22.3068V13.6842Z" fill="#67859B"/>
</svg>
